REM DIRINDEX 1\2\6,1\2\7,1\2\8,1\2\9,1\3\10,1\3\11,1\4\12,1\4\13,1\4\14,1\5\15,1\5\16,1\5\17
REM DIRNAME folder01,folder02,folder03,folder04,folder05,folder06,folder07,folder08,folder09,folder10,folder11,folder12,folder13,folder14,folder15,folder16,folder17
TITLE ""
FILE "1400_3_sec03_0284_0300.mp3" MP3
  TRACK 01 AUDIO
    TITLE "0:"
    INDEX 01 00:00:00
  TRACK 02 AUDIO
    TITLE "17:cjc029_4996"
    INDEX 01 00:00:15
  TRACK 03 AUDIO
    TITLE "0:"
    INDEX 01 00:01:60
  TRACK 04 AUDIO
    TITLE "16:cjc029_4997"
    INDEX 01 00:01:64
  TRACK 05 AUDIO
    TITLE "0:"
    INDEX 01 00:03:02
  TRACK 06 AUDIO
    TITLE "17:cjc029_4998"
    INDEX 01 00:03:63
  TRACK 07 AUDIO
    TITLE "0:"
    INDEX 01 00:05:20
  TRACK 08 AUDIO
    TITLE "16:cjc029_4999"
    INDEX 01 00:05:24
  TRACK 09 AUDIO
    TITLE "0:"
    INDEX 01 00:06:35
  TRACK 10 AUDIO
    TITLE "17:cjc029_5000"
    INDEX 01 00:07:23
  TRACK 11 AUDIO
    TITLE "0:"
    INDEX 01 00:09:69
  TRACK 12 AUDIO
    TITLE "16:cjc029_5001"
    INDEX 01 00:10:00
  TRACK 13 AUDIO
    TITLE "0:"
    INDEX 01 00:10:74
  TRACK 14 AUDIO
    TITLE "17:cjc029_5002"
    INDEX 01 00:11:60
  TRACK 15 AUDIO
    TITLE "0:"
    INDEX 01 00:13:02
  TRACK 16 AUDIO
    TITLE "16:cjc029_5003"
    INDEX 01 00:13:08
  TRACK 17 AUDIO
    TITLE "0:"
    INDEX 01 00:14:17
  TRACK 18 AUDIO
    TITLE "17:cjc029_5004"
    INDEX 01 00:14:74
  TRACK 19 AUDIO
    TITLE "0:"
    INDEX 01 00:16:24
  TRACK 20 AUDIO
    TITLE "16:cjc029_5005"
    INDEX 01 00:16:30
  TRACK 21 AUDIO
    TITLE "0:"
    INDEX 01 00:17:33
  TRACK 22 AUDIO
    TITLE "17:cjc029_5006"
    INDEX 01 00:18:17
  TRACK 23 AUDIO
    TITLE "0:"
    INDEX 01 00:19:38
  TRACK 24 AUDIO
    TITLE "16:cjc029_5007"
    INDEX 01 00:19:44
  TRACK 25 AUDIO
    TITLE "0:"
    INDEX 01 00:20:63
  TRACK 26 AUDIO
    TITLE "17:cjc029_5008"
    INDEX 01 00:21:45
  TRACK 27 AUDIO
    TITLE "0:"
    INDEX 01 00:23:14
  TRACK 28 AUDIO
    TITLE "16:cjc029_5009"
    INDEX 01 00:23:18
  TRACK 29 AUDIO
    TITLE "0:"
    INDEX 01 00:24:25
  TRACK 30 AUDIO
    TITLE "17:cjc029_5010"
    INDEX 01 00:25:09
  TRACK 31 AUDIO
    TITLE "0:"
    INDEX 01 00:26:34
  TRACK 32 AUDIO
    TITLE "16:cjc029_5011"
    INDEX 01 00:26:36
  TRACK 33 AUDIO
    TITLE "0:"
    INDEX 01 00:27:43
  TRACK 34 AUDIO
    TITLE "17:cjc029_5012"
    INDEX 01 00:28:29
  TRACK 35 AUDIO
    TITLE "0:"
    INDEX 01 00:29:48
  TRACK 36 AUDIO
    TITLE "16:cjc029_5013"
    INDEX 01 00:29:54
  TRACK 37 AUDIO
    TITLE "0:"
    INDEX 01 00:30:54
  TRACK 38 AUDIO
    TITLE "17:cjc029_5014"
    INDEX 01 00:31:37
  TRACK 39 AUDIO
    TITLE "0:"
    INDEX 01 00:32:60
  TRACK 40 AUDIO
    TITLE "16:cjc029_5015"
    INDEX 01 00:32:66
  TRACK 41 AUDIO
    TITLE "0:"
    INDEX 01 00:33:73
  TRACK 42 AUDIO
    TITLE "17:cjc029_5016"
    INDEX 01 00:34:57
  TRACK 43 AUDIO
    TITLE "0:"
    INDEX 01 00:36:11
  TRACK 44 AUDIO
    TITLE "16:cjc029_5017"
    INDEX 01 00:36:15
  TRACK 45 AUDIO
    TITLE "0:"
    INDEX 01 00:37:14
  TRACK 46 AUDIO
    TITLE "17:cjc029_5018"
    INDEX 01 00:38:00
  TRACK 47 AUDIO
    TITLE "0:"
    INDEX 01 00:39:11
  TRACK 48 AUDIO
    TITLE "16:cjc029_5019"
    INDEX 01 00:39:17
  TRACK 49 AUDIO
    TITLE "0:"
    INDEX 01 00:40:21
  TRACK 50 AUDIO
    TITLE "17:cjc029_5020"
    INDEX 01 00:41:04
  TRACK 51 AUDIO
    TITLE "0:"
    INDEX 01 00:42:33
  TRACK 52 AUDIO
    TITLE "16:cjc029_5021"
    INDEX 01 00:42:39
  TRACK 53 AUDIO
    TITLE "0:"
    INDEX 01 00:43:68
  TRACK 54 AUDIO
    TITLE "17:cjc029_5022"
    INDEX 01 00:44:50
  TRACK 55 AUDIO
    TITLE "0:"
    INDEX 01 00:45:47
  TRACK 56 AUDIO
    TITLE "16:cjc029_5023"
    INDEX 01 00:45:53
  TRACK 57 AUDIO
    TITLE "0:"
    INDEX 01 00:46:56
  TRACK 58 AUDIO
    TITLE "17:cjc029_5024"
    INDEX 01 00:47:42
  TRACK 59 AUDIO
    TITLE "0:"
    INDEX 01 00:49:14
  TRACK 60 AUDIO
    TITLE "16:cjc029_5025"
    INDEX 01 00:49:21
  TRACK 61 AUDIO
    TITLE "0:"
    INDEX 01 00:50:56
  TRACK 62 AUDIO
    TITLE "17:cjc029_5026"
    INDEX 01 00:51:44
  TRACK 63 AUDIO
    TITLE "0:"
    INDEX 01 00:53:62
  TRACK 64 AUDIO
    TITLE "16:cjc029_5027"
    INDEX 01 00:53:68
  TRACK 65 AUDIO
    TITLE "0:"
    INDEX 01 00:55:03
  TRACK 66 AUDIO
    TITLE "17:cjc029_5028"
    INDEX 01 00:55:63
  TRACK 67 AUDIO
    TITLE "0:"
    INDEX 01 00:56:65
  TRACK 68 AUDIO
    TITLE "16:cjc029_5029"
    INDEX 01 00:56:71
  TRACK 69 AUDIO
    TITLE "0:"
    INDEX 01 00:58:11
